<?xml version="1.0" encoding="UTF-8"?><svg xmlns="http://www.w3.org/2000/svg" viewBox="0 0 6319.718 2500"><defs><style>.cls-1{fill:none;}.cls-2{fill:#cfb2c1;}.cls-3{fill:#c17b9e;}.cls-4{fill:#7a3e65;}.cls-5{fill:#512843;}</style></defs><polygon class="cls-3" points="1640.904 277.612 1640.904 665.897 1070 499.495 1070 1997.144 1960.466 1740.369 1960.466 430.154 1640.904 277.612"/><polygon class="cls-4" points="179.535 756.27 179.535 2063.016 499.097 2219.019 499.097 1830.734 1070 1997.144 1070 499.495 179.535 756.27"/><polygon class="cls-3" points="732.482 1896.914 499.097 1830.734 499.097 2219.019 732.482 2147.483 732.482 1896.914"/><polygon class="cls-4" points="1407.518 597.872 1640.904 665.897 1640.904 277.612 1407.518 349.149 1407.518 597.872"/><path class="cls-3" d="M685.803,1508.33l384.197,45.065,2.884-4.305,1.563-600.93-4.447-4.924-477.153,36.801v536.313"/><polyline class="cls-4" points="1454.197 1508.33 1070 1553.395 1070 943.236 1547.55 980.249 1547.55 1516.638"/><polygon class="cls-5" points="1070 920.158 592.847 980.037 1070 1021.455 1547.55 980.249 1070 920.158"/><polygon class="cls-2" points="1074.494 1475.257 1070 1474.866 592.847 1516.35 1070 1578.001 1547.55 1516.638 1074.494 1475.257"/><g><rect class="cls-1" width="6319.718" height="2500"/><g><path d="M2396.958,1625V875h226.312l135.188,511.594,133.797-511.594h226.703v750h-140l-.5-590.375-147.953,590.375h-145.875l-147.172-590.375-.5,590.375h-140Z"/><path d="M3348.988,1249l-129-24c14.656-52.688,39.891-91.703,75.703-117.016s89.016-37.984,159.625-37.984c64.109,0,111.859,7.594,143.234,22.75s53.453,34.406,66.25,57.75c12.781,23.344,19.188,66.172,19.188,128.516l-2,167.625c0,47.703,2.312,82.875,6.953,105.531s13.328,46.938,26.047,72.828h-142c-3.75-9.547-8.359-23.703-13.812-42.453-2.406-8.516-4.109-14.141-5.125-16.875-24.562,23.781-50.844,41.609-78.828,53.5-27.984,11.875-57.844,17.828-89.562,17.828-55.969,0-100.062-15.094-132.312-45.297s-48.359-68.391-48.359-114.547c0-30.531,7.312-57.765,21.953-81.703,14.625-23.922,35.141-42.25,61.531-54.984,26.375-12.719,64.422-23.844,114.125-33.344,67.047-12.547,113.516-24.25,139.391-35.125v-14.469c0-27.906-6.844-47.812-20.531-59.703-13.688-11.875-39.531-17.828-77.516-17.828-25.656,0-45.672,5.109-60.047,15.312s-26.016,28.094-34.906,53.688Zm193,117c-18.344,6.078-47.359,13.328-87.078,21.766s-65.688,16.688-77.906,24.781c-18.688,13.156-28.016,29.859-28.016,50.093,0,19.906,7.469,37.109,22.406,51.609s33.938,21.75,57.031,21.75c25.797,0,50.406-8.422,73.844-25.297,17.312-12.812,28.672-28.5,34.109-47.047,3.734-12.141,5.609-35.25,5.609-69.328v-28.328Z"/><path d="M3785.136,1660l164,20c2.734,19.188,9.078,32.375,19.016,39.578,13.688,10.281,35.281,15.422,64.75,15.422,37.672,0,65.938-5.609,84.781-16.812,12.672-7.469,22.266-19.531,28.766-36.156,4.453-11.891,6.688-33.797,6.688-65.719l.578-78.953c-43.016,58.438-97.297,87.641-162.828,87.641-73.047,0-130.906-30.828-173.578-92.5-33.453-48.719-50.172-109.359-50.172-181.937,0-90.969,21.922-160.469,65.797-208.5,43.859-48.031,98.391-72.062,163.609-72.062,67.25,0,122.781,29.516,166.594,88.516v-77.516h134v487.671c0,64.125-5.297,112.062-15.891,143.797-10.594,31.703-25.469,56.609-44.594,74.703-19.125,18.078-44.672,32.234-76.609,42.484-31.953,10.219-72.359,15.344-121.219,15.344-92.25,0-157.688-15.812-196.297-47.406-38.609-31.609-57.906-71.672-57.906-120.172,0-4.781,.172-10.594,.516-17.422Zm129-317.546c0,57.562,11.141,99.718,33.438,126.453s49.781,40.094,82.469,40.094c35.062,0,64.672-13.703,88.844-41.125,24.156-27.406,36.25-68.031,36.25-121.843,0-56.188-11.578-97.906-34.719-125.156-23.156-27.25-52.422-40.875-87.828-40.875-34.375,0-62.719,13.375-85.016,40.109s-33.438,67.516-33.438,122.344Z"/><path d="M4906.544,1625h-144v-276.906c0-58.578-3.062-96.469-9.188-113.672s-16.062-30.578-29.828-40.109-30.328-14.312-49.703-14.312c-24.812,0-47.078,6.812-66.797,20.438s-33.219,31.688-40.531,54.156c-7.312,22.484-10.953,64.031-10.953,124.656v245.75h-144v-544h133v79.75c47.438-60.5,107.172-90.75,179.203-90.75,31.75,0,60.766,5.719,87.047,17.125s46.156,25.969,59.641,43.688,22.875,37.828,28.172,60.312c5.281,22.484,7.938,54.672,7.938,96.578v337.296Z"/><path d="M5024.951,1008v-133h144v133h-144Zm0,617v-544h144v544h-144Z"/><path d="M5539.682,1081v115h-98v219.109c0,44.375,.922,70.218,2.797,77.562s6.125,13.391,12.766,18.172,14.719,7.156,24.25,7.156c13.266,0,32.5-4.594,57.688-13.812l12.5,111.359c-33.391,14.297-71.203,21.453-113.453,21.453-25.906,0-49.234-4.359-70.016-13.047s-36.031-19.953-45.75-33.766-16.438-32.484-20.188-56.016c-3.062-16.719-4.594-50.484-4.594-101.297v-236.875h-66v-115h66v-108l144-84v192h98Z"/><path d="M5580.184,1345.844c0-47.672,11.75-93.812,35.25-138.438,23.5-44.609,56.797-78.656,99.891-102.156s91.203-35.25,144.344-35.25c82.094,0,149.359,26.656,201.828,79.953,52.453,53.297,78.688,120.641,78.688,202.016,0,82.078-26.484,150.109-79.453,204.078s-119.656,80.953-200.031,80.953c-49.75,0-97.188-11.25-142.312-33.703-45.125-22.469-79.453-55.422-102.953-98.844s-35.25-96.296-35.25-158.609Zm147,7.656c0,53.812,12.766,95.015,38.297,123.609s57.016,42.891,94.453,42.891,68.844-14.297,94.203-42.891,38.047-70.14,38.047-124.625c0-53.125-12.688-93.984-38.047-122.578s-56.766-42.906-94.203-42.906-68.922,14.312-94.453,42.906-38.297,69.797-38.297,123.594Z"/></g></g></svg>
