<?xml version="1.0" encoding="UTF-8"?><svg xmlns="http://www.w3.org/2000/svg" viewBox="0 0 2140 2500"><defs><style>.cls-1{fill:none;}.cls-2{fill:#cfb2c1;}.cls-3{fill:#c17b9e;}.cls-4{fill:#7a3e65;}.cls-5{fill:#512843;}</style></defs><polygon class="cls-3" points="1640.904 277.612 1640.904 665.897 1070 499.495 1070 1997.144 1960.466 1740.369 1960.466 430.154 1640.904 277.612"/><polygon class="cls-4" points="179.535 756.27 179.535 2063.016 499.097 2219.019 499.097 1830.734 1070 1997.144 1070 499.495 179.535 756.27"/><polygon class="cls-3" points="732.482 1896.914 499.097 1830.734 499.097 2219.019 732.482 2147.483 732.482 1896.914"/><polygon class="cls-4" points="1407.518 597.872 1640.904 665.897 1640.904 277.612 1407.518 349.149 1407.518 597.872"/><path class="cls-3" d="M685.803,1508.33l384.197,45.065,2.884-4.305,1.563-600.93-4.447-4.924-477.153,36.801v536.313"/><polyline class="cls-4" points="1454.197 1508.33 1070 1553.395 1070 943.236 1547.55 980.249 1547.55 1516.638"/><polygon class="cls-5" points="1070 920.158 592.847 980.037 1070 1021.455 1547.55 980.249 1070 920.158"/><polygon class="cls-2" points="1074.494 1475.257 1070 1474.866 592.847 1516.35 1070 1578.001 1547.55 1516.638 1074.494 1475.257"/><rect class="cls-1" width="6319.718" height="2500"/><rect class="cls-1" y="-30.577" width="179.535" height="786.848"/><rect class="cls-1" x="1960.466" y="-30.577" width="179.535" height="786.848"/></svg>
