<?xml version="1.0" encoding="UTF-8"?>
<!DOCTYPE svg PUBLIC "-//W3C//DTD SVG 1.1//EN" "http://www.w3.org/Graphics/SVG/1.1/DTD/svg11.dtd">
<!-- Creator: CorelDRAW X7 -->
<svg xmlns="http://www.w3.org/2000/svg" xml:space="preserve" width="3.54331in" height="0.984252in" version="1.1" style="shape-rendering:geometricPrecision; text-rendering:geometricPrecision; image-rendering:optimizeQuality; fill-rule:evenodd; clip-rule:evenodd"
viewBox="0 0 3543 984"
 xmlns:xlink="http://www.w3.org/1999/xlink">
 <defs>
  <style type="text/css">
   <![CDATA[
    .fil1 {fill:#0D0E59}
    .fil5 {fill:#0EDADA}
    .fil6 {fill:#0EDBDA}
    .fil4 {fill:#12EEDF}
    .fil2 {fill:white}
    .fil0 {fill:#0D0E59;fill-rule:nonzero}
    .fil3 {fill:url(#id0);fill-rule:nonzero}
   ]]>
  </style>
  <linearGradient id="id0" gradientUnits="userSpaceOnUse" x1="709.835" y1="793.421" x2="982.283" y2="436.638">
   <stop offset="0" style="stop-opacity:1; stop-color:#0CC7D4"/>
   <stop offset="1" style="stop-opacity:1; stop-color:#2ED5BF"/>
  </linearGradient>
 </defs>
 <g id="Layer_x0020_1">
  <metadata id="CorelCorpID_0Corel-Layer"/>
  <g id="_455217112">
   <path class="fil0" d="M1487 306c14,0 30,5 43,15l35 -72c-24,-16 -58,-24 -90,-24 -69,0 -127,41 -127,118l0 32 -46 0 0 69 46 0 0 261 98 0 0 -261 82 0 0 -69 -82 0 0 -29c0,-27 18,-40 41,-40zm164 116l0 -62 -99 0 0 345 99 0 0 -166c0,-59 43,-96 114,-90l0 -93c-51,1 -90,24 -114,66zm308 -65c-111,0 -186,70 -186,175 0,106 75,177 186,177 110,0 184,-71 184,-177 0,-105 -74,-175 -184,-175zm0 82c50,0 86,38 86,95 0,56 -36,95 -86,95 -52,0 -87,-39 -87,-95 0,-57 35,-95 87,-95zm463 -79l0 170c0,50 -28,88 -76,88 -40,0 -65,-26 -65,-70l0 -188 -98 0 0 217c0,81 48,132 124,132 52,0 92,-21 115,-65l0 61 99 0 0 -345 -99 0zm277 62l0 -62 -99 0 0 345 99 0 0 -166c0,-59 43,-96 114,-90l0 -93c-51,1 -90,24 -114,66zm201 -210c-28,0 -48,21 -48,50 0,28 20,49 48,49 28,0 48,-21 48,-49 0,-29 -20,-50 -48,-50zm-49 148l0 345 99 0 0 -345 -99 0zm333 -3c-111,0 -185,70 -185,175 0,106 74,177 185,177 111,0 185,-71 185,-177 0,-105 -74,-175 -185,-175zm0 82c51,0 86,38 86,95 0,56 -35,95 -86,95 -51,0 -86,-39 -86,-95 0,-57 35,-95 86,-95z"/>
   <g>
    <polygon class="fil1" points="334,375 690,254 1045,375 690,496 "/>
    <path class="fil1" d="M453 450c3,-46 10,-95 26,-138 2,-5 4,-9 6,-14 -13,-20 -22,-42 -24,-65 -4,-30 4,-69 40,-75 25,-4 74,10 106,20 54,-22 109,-25 162,-4 27,-25 64,-49 96,-44 47,7 55,82 51,119 -2,17 -7,33 -15,48 3,5 5,10 7,15 11,30 17,62 21,93 15,51 13,119 9,171 -1,4 -1,8 -1,12l-569 0c14,-53 46,-98 85,-138z"/>
    <path class="fil2" d="M403 588c14,-43 42,-84 82,-123 4,-53 12,-103 26,-141 3,-10 8,-20 14,-30 -37,-40 -39,-99 -19,-103 19,-3 80,16 103,23 60,-28 116,-27 169,0 24,-30 62,-54 82,-51 20,3 39,91 2,132 6,9 11,19 14,29 9,25 16,55 20,88 15,51 12,127 7,176l1 0c0,-6 0,-13 0,-20 -1,8 -2,14 -3,20l-498 0z"/>
    <g>
     <path class="fil1" d="M605 317c17,0 31,20 31,44 0,24 -14,44 -31,44 -17,0 -31,-20 -31,-44 0,-24 14,-44 31,-44z"/>
     <path class="fil1" d="M778 317c17,0 30,20 30,44 0,24 -13,44 -30,44 -17,0 -31,-20 -31,-44 0,-24 14,-44 31,-44z"/>
    </g>
    <polygon class="fil3" points="1045,375 690,496 647,693 690,855 1045,734 1045,710 1045,425 "/>
    <polygon class="fil4" points="690,496 765,603 1116,476 1045,375 "/>
    <rect class="fil5" x="241" y="687" width="93.3143" height="93.3143"/>
    <rect class="fil5" x="174" y="620" width="66.3583" height="66.3583"/>
    <polygon class="fil6" points="334,375 690,496 690,545 690,830 690,855 419,763 419,705 448,705 448,646 390,646 390,676 334,676 334,425 "/>
    <polygon class="fil4" points="690,496 614,603 263,476 334,375 "/>
   </g>
  </g>
 </g>
</svg>
